/* XPM */
static char * galculator_xpm[] = {
"32 32 13 1",
" 	c None",
".	c #4B79BB",
"+	c #4B7ABB",
"@	c #4B7ABA",
"#	c #4A7ABA",
"$	c #4B7AB9",
"%	c #4A79BA",
"&	c #4A7ABB",
"*	c #4A79BB",
"=	c #4B79BA",
"-	c #4978BB",
";	c #4C7ABB",
">	c #497ABB",
"                                ",
"  .++++++++++++++++++++++++++.  ",
" .@.@++++++++++++++++++++++@.@. ",
" +.@                        @.+ ",
" +@                          @+ ",
" ++  +##++++++++++++++++##+  ++ ",
" ++  ++                  ++  ++ ",
" ++  +#                  #+  ++ ",
" ++  ++                  ++  ++ ",
" ++  ++                  ++  ++ ",
" ++  ++                  ++  ++ ",
" ++  ++++++++++++++++++++++  ++ ",
" ++  ++++++@+++@@+++@++++++  ++ ",
" ++    $$   $$$  $$$   $$    ++ ",
" ++   ..+@ %+.&  &.+% @+..   ++ ",
" ++   @  % @* &  & *@ %  @   ++ ",
" ++   .  + &@ @  @ @& +  .   ++ ",
" ++                          ++ ",
" ++                          ++ ",
" ++   *++# &=++  ++=& ++++   ++ ",
" ++   @  . @- *  * -@ +  @   ++ ",
" ++   #@.& +.;&  &;.+ +  @   ++ ",
" ++    >>   >>>  >>>  +  @   ++ ",
" ++    --   ---  ---  +  @   ++ ",
" ++   @@++ +*++  ++*+ +  @   ++ ",
" ++   @  + @- *  * -@ +  @   ++ ",
" ++   *  @ *@ +  + @* @  *   ++ ",
" +@                          @+ ",
" +.@                        @.+ ",
" .@.@++++++++++++++++++++++@.@. ",
"  .++++++++++++++++++++++++++.  ",
"                                "};
